<?xml version="1.0" standalone="no"?><svg xmlns="http://www.w3.org/2000/svg" viewBox="0 0 1440 320"><path fill="#3071E7" fill-opacity="1" d="M0,192L24,186.7C48,181,96,171,144,165.3C192,160,240,160,288,154.7C336,149,384,139,432,138.7C480,139,528,149,576,165.3C624,181,672,203,720,202.7C768,203,816,181,864,170.7C912,160,960,160,1008,165.3C1056,171,1104,181,1152,202.7C1200,224,1248,256,1296,240C1344,224,1392,160,1416,128L1440,96L1440,320L1416,320C1392,320,1344,320,1296,320C1248,320,1200,320,1152,320C1104,320,1056,320,1008,320C960,320,912,320,864,320C816,320,768,320,720,320C672,320,624,320,576,320C528,320,480,320,432,320C384,320,336,320,288,320C240,320,192,320,144,320C96,320,48,320,24,320L0,320Z"></path></svg>